<svg enable-background="new 0 0 24 24" viewBox="0 0 24 24" xmlns="http://www.w3.org/2000/svg"><path style="fill:white" d="m12.22182 5.97728c1.42137-.02391 2.79488.51341 3.82273 1.49545l2.86819-2.86818c-1.81006-1.7-4.20788-2.63339-6.69092-2.60455-3.78095-.00145-7.23917 2.13047-8.93638 5.5091l3.34092 2.5909c.7878-2.43216 3.03909-4.09091 5.59546-4.12272z"/><path style="fill:white" d="m3.28547 7.50908c-1.41819 2.82599-1.41819 6.15582 0 8.98181l3.34087-2.59089c-.41812-1.23216-.41812-2.56784 0-3.8z"/><path style="fill:white" d="m15.60822 17.06822c-2.80401 1.79981-6.53614.98574-8.33595-1.81827-.2705-.42143-.48748-.8749-.64593-1.34995l-3.34087 2.59089c1.69718 3.37865 5.15542 5.51058 8.93638 5.50911 2.43429.06602 4.8018-.80065 6.61815-2.42269z"/><path style="fill:white" d="m21.64001 10.18182h-9.41815v3.86816h5.38177c-.22498 1.23639-.94592 2.3269-1.99542 3.01819-.00317.00208-.00647.0036-.00964.00562.00317-.00201.00647-.00354.00964-.00555l3.23175 2.50909.00006-.00006c1.9903-1.91693 3.07397-4.5882 2.98181-7.34998.00056-.68591-.06029-1.37042-.18182-2.04547z"/></svg>