<svg width="541" height="541" viewBox="0 0 541 541" fill="none" xmlns="http://www.w3.org/2000/svg">
<path d="M199.945 103.689C210.539 149.449 174.885 188.22 149.638 212.34C131.154 229.922 127.835 229.697 109.351 212.34C84.3298 188.22 46.9586 149.449 57.5532 103.689C75.5866 25.6948 182.137 25.6948 199.945 103.689Z" stroke="white" stroke-width="4"/>
<path d="M201.835 112.708H322.658C364.36 112.708 392 164.329 360.667 191.83L180.559 349.396C149.226 376.671 168.612 428.292 210.089 428.292H349.569" stroke="white" stroke-width="3" stroke-linecap="round" stroke-linejoin="round"/>
<path fill-rule="evenodd" clip-rule="evenodd" d="M130.914 146.722C124.303 146.722 118.943 141.363 118.943 134.751C118.943 128.14 124.303 122.78 130.914 122.78C137.526 122.78 142.885 128.14 142.885 134.751C142.885 141.363 137.526 146.722 130.914 146.722Z" stroke="white" stroke-width="2"/>
<path fill-rule="evenodd" clip-rule="evenodd" d="M418.68 419.141C412.069 419.141 406.709 413.781 406.709 407.17C406.709 400.558 412.069 395.199 418.68 395.199C425.291 395.199 430.651 400.558 430.651 407.17C430.651 413.781 425.291 419.141 418.68 419.141Z" stroke="white" stroke-width="2"/>
<path d="M489.557 376.957C500.151 422.716 464.497 461.488 439.251 485.607C420.766 503.19 417.448 502.965 398.963 485.607C373.942 461.488 336.571 422.716 347.166 376.957C365.199 298.962 471.749 298.962 489.557 376.957Z" stroke="white" stroke-width="4"/>
</svg>
